<svg width="46" height="46" viewBox="0 0 46 46" fill="none" xmlns="http://www.w3.org/2000/svg">
<g clip-path="url(#clip0_43_7953)">
<path d="M33.3549 3.64232C33.3549 1.63511 34.982 0.00805664 36.9891 0.00805664H8.70117C7.10501 0.00805664 5.81104 1.30203 5.81104 2.89819V35.8095H33.3548L33.3549 3.64232Z" fill="#FFE07D"/>
<path d="M34.795 0.00805664C32.7878 0.00805664 31.1607 1.6352 31.1607 3.64232V18.0546C31.1607 18.9026 30.6038 19.657 29.7876 19.8871C23.7692 21.5841 19.3579 27.1144 19.3579 33.6757C19.3579 35.4007 19.663 37.0544 20.2218 38.586H33.3548V3.64232C33.3548 1.63511 34.982 0.00805664 36.9891 0.00805664H34.795Z" fill="#FFD064"/>
<path d="M28.9623 6.27608H10.7543C10.3709 6.27608 10.0601 5.96536 10.0601 5.58189C10.0601 5.19841 10.3708 4.8877 10.7543 4.8877H28.9623C29.3457 4.8877 29.6565 5.19841 29.6565 5.58189C29.6565 5.96536 29.3457 6.27608 28.9623 6.27608ZM28.9623 13.1981H10.7543C10.3709 13.1981 10.0601 12.8873 10.0601 12.5039C10.0601 12.1204 10.3708 11.8097 10.7543 11.8097H28.9623C29.3457 11.8097 29.6565 12.1204 29.6565 12.5039C29.6565 12.8873 29.3457 13.1981 28.9623 13.1981ZM28.9623 20.1202H10.7543C10.6631 20.1202 10.5728 20.1023 10.4886 20.0674C10.4044 20.0325 10.3278 19.9814 10.2634 19.9169C10.1989 19.8524 10.1478 19.7759 10.1129 19.6917C10.078 19.6075 10.06 19.5172 10.0601 19.426C10.06 19.3349 10.078 19.2446 10.1129 19.1603C10.1478 19.0761 10.1989 18.9996 10.2634 18.9351C10.3278 18.8707 10.4044 18.8195 10.4886 18.7846C10.5728 18.7498 10.6631 18.7318 10.7543 18.7318H28.9623C29.3457 18.7318 29.6565 19.0425 29.6565 19.426C29.6565 19.8095 29.3457 20.1202 28.9623 20.1202ZM28.9623 27.0423H10.7543C10.3709 27.0423 10.0601 26.7316 10.0601 26.3481C10.0601 25.9646 10.3708 25.6539 10.7543 25.6539H28.9623C29.3457 25.6539 29.6565 25.9646 29.6565 26.3481C29.6565 26.7316 29.3457 27.0423 28.9623 27.0423Z" fill="#2B4D66"/>
<path d="M30.0342 38.5861H5.13826C2.3005 38.5861 0 36.2856 0 33.4477V32.5378C2.3815e-05 32.4223 0.045913 32.3115 0.127577 32.2299C0.209242 32.1482 0.319996 32.1023 0.435487 32.1023H30.0342V38.5861Z" fill="#EAB14D"/>
<path d="M19.3579 33.6758C19.3579 35.4008 19.663 37.0545 20.2218 38.5861H30.0343V32.1023H19.4443C19.387 32.6248 19.3581 33.1501 19.3579 33.6758Z" fill="#E49542"/>
<path d="M33.6839 45.9921C40.486 45.9921 46.0002 40.4779 46.0002 33.6759C46.0002 26.8738 40.486 21.3596 33.6839 21.3596C26.8818 21.3596 21.3677 26.8738 21.3677 33.6759C21.3677 40.4779 26.8818 45.9921 33.6839 45.9921Z" fill="#DD636E"/>
<path d="M33.6835 21.3596C33.357 21.3596 33.0335 21.3726 32.7134 21.3975C39.062 21.8922 44.0595 27.2003 44.0595 33.6759C44.0595 40.1514 39.0619 45.4595 32.7134 45.9542C33.0335 45.9792 33.357 45.9921 33.6835 45.9921C40.4856 45.9921 45.9998 40.4779 45.9998 33.6759C45.9998 26.8738 40.4856 21.3596 33.6835 21.3596Z" fill="#DA4A54"/>
<path d="M33.6836 42.8623C38.7572 42.8623 42.8702 38.7494 42.8702 33.6758C42.8702 28.6022 38.7572 24.4893 33.6836 24.4893C28.61 24.4893 24.4971 28.6022 24.4971 33.6758C24.4971 38.7494 28.61 42.8623 33.6836 42.8623Z" fill="#F4FBFF"/>
<path d="M33.6838 24.4893C33.2581 24.4893 32.8394 24.5189 32.4292 24.5749C36.9092 25.1868 40.3611 29.0278 40.3611 33.6758C40.3611 38.3238 36.9091 42.1648 32.4292 42.7767C32.8394 42.8328 33.2581 42.8623 33.6838 42.8623C38.7574 42.8623 42.8704 38.7494 42.8704 33.6757C42.8704 28.6022 38.7574 24.4893 33.6838 24.4893Z" fill="#DAF1F4"/>
<path d="M33.6836 28.0106C33.5924 28.0106 33.5021 27.9926 33.4179 27.9578C33.3337 27.9229 33.2571 27.8717 33.1927 27.8073C33.1282 27.7428 33.0771 27.6663 33.0422 27.5821C33.0073 27.4978 32.9894 27.4075 32.9894 27.3164V26.9984C32.9894 26.9072 33.0073 26.817 33.0422 26.7327C33.0771 26.6485 33.1282 26.572 33.1927 26.5075C33.2571 26.443 33.3337 26.3919 33.4179 26.357C33.5021 26.3221 33.5924 26.3042 33.6836 26.3042C33.7747 26.3042 33.865 26.3221 33.9492 26.357C34.0335 26.3919 34.11 26.443 34.1745 26.5075C34.2389 26.572 34.2901 26.6485 34.325 26.7327C34.3598 26.817 34.3778 26.9072 34.3778 26.9984V27.3164C34.3778 27.4075 34.3598 27.4978 34.325 27.5821C34.2901 27.6663 34.2389 27.7428 34.1745 27.8073C34.11 27.8717 34.0335 27.9229 33.9492 27.9578C33.865 27.9926 33.7747 28.0106 33.6836 28.0106ZM38.1803 29.8732C38.043 29.8732 37.9087 29.8325 37.7946 29.7562C37.6804 29.6799 37.5914 29.5715 37.5389 29.4446C37.4863 29.3177 37.4726 29.1781 37.4994 29.0435C37.5263 28.9088 37.5924 28.7851 37.6896 28.6881L37.9144 28.4633C37.9789 28.3989 38.0554 28.3478 38.1396 28.3129C38.2238 28.278 38.3141 28.2601 38.4053 28.2601C38.4964 28.2602 38.5867 28.2781 38.6709 28.313C38.7551 28.3479 38.8316 28.3991 38.896 28.4636C38.9605 28.528 39.0116 28.6046 39.0464 28.6888C39.0813 28.773 39.0992 28.8633 39.0992 28.9545C39.0992 29.0456 39.0812 29.1359 39.0463 29.2201C39.0114 29.3043 38.9602 29.3808 38.8958 29.4452L38.6709 29.67C38.6066 29.7345 38.5301 29.7857 38.4459 29.8205C38.3617 29.8554 38.2714 29.8733 38.1803 29.8732ZM40.3609 34.3699H40.0429C39.6595 34.3699 39.3487 34.0592 39.3487 33.6757C39.3487 33.2922 39.6594 32.9815 40.0429 32.9815H40.3609C40.7442 32.9815 41.0551 33.2922 41.0551 33.6757C41.0551 34.0592 40.7442 34.3699 40.3609 34.3699ZM27.3242 34.3699H27.0062C26.6228 34.3699 26.312 34.0592 26.312 33.6757C26.312 33.2922 26.6227 32.9815 27.0062 32.9815H27.3242C27.7076 32.9815 28.0184 33.2922 28.0184 33.6757C28.0184 34.0592 27.7077 34.3699 27.3242 34.3699ZM38.4052 39.0915C38.3141 39.0916 38.2238 39.0737 38.1396 39.0389C38.0554 39.004 37.9789 38.9528 37.9145 38.8883L37.6896 38.6636C37.6252 38.5991 37.574 38.5226 37.5391 38.4384C37.5042 38.3542 37.4862 38.264 37.4862 38.1728C37.4862 38.0816 37.5041 37.9914 37.539 37.9071C37.5738 37.8229 37.6249 37.7464 37.6894 37.6819C37.7538 37.6174 37.8303 37.5662 37.9145 37.5313C37.9987 37.4963 38.089 37.4783 38.1801 37.4783C38.2713 37.4783 38.3616 37.4962 38.4458 37.5311C38.53 37.566 38.6066 37.6172 38.671 37.6817L38.8959 37.9064C38.993 38.0035 39.0591 38.1271 39.086 38.2618C39.1128 38.3965 39.0991 38.536 39.0466 38.6629C38.994 38.7898 38.9051 38.8982 38.7909 38.9745C38.6767 39.0508 38.5425 39.0915 38.4052 39.0915ZM33.6836 41.0472C33.5924 41.0473 33.5021 41.0293 33.4179 40.9944C33.3337 40.9595 33.2571 40.9084 33.1927 40.8439C33.1282 40.7795 33.0771 40.7029 33.0422 40.6187C33.0073 40.5345 32.9894 40.4442 32.9894 40.3531V40.0351C32.9894 39.9439 33.0073 39.8536 33.0422 39.7694C33.0771 39.6852 33.1282 39.6086 33.1927 39.5442C33.2571 39.4797 33.3337 39.4286 33.4179 39.3937C33.5021 39.3588 33.5924 39.3409 33.6836 39.3409C33.7747 39.3409 33.865 39.3588 33.9492 39.3937C34.0335 39.4286 34.11 39.4797 34.1745 39.5442C34.2389 39.6086 34.2901 39.6852 34.325 39.7694C34.3598 39.8536 34.3778 39.9439 34.3778 40.0351V40.3531C34.3778 40.4442 34.3598 40.5345 34.325 40.6187C34.2901 40.7029 34.2389 40.7795 34.1745 40.8439C34.11 40.9084 34.0335 40.9595 33.9492 40.9944C33.865 41.0293 33.7747 41.0473 33.6836 41.0472ZM28.962 39.0915C28.8247 39.0915 28.6905 39.0508 28.5764 38.9745C28.4622 38.8982 28.3732 38.7898 28.3207 38.663C28.2682 38.5362 28.2544 38.3966 28.2812 38.2619C28.3079 38.1273 28.3741 38.0036 28.4711 37.9065L28.6959 37.6817C28.7603 37.617 28.8368 37.5656 28.9211 37.5304C29.0054 37.4953 29.0958 37.4772 29.1871 37.477C29.2785 37.4769 29.3689 37.4948 29.4533 37.5297C29.5377 37.5646 29.6144 37.6158 29.679 37.6804C29.7435 37.7449 29.7947 37.8216 29.8296 37.906C29.8645 37.9904 29.8824 38.0809 29.8823 38.1722C29.8822 38.2635 29.864 38.3539 29.8289 38.4382C29.7938 38.5225 29.7424 38.5991 29.6776 38.6635L29.4529 38.8882C29.3885 38.9528 29.3119 39.0039 29.2277 39.0388C29.1435 39.0737 29.0532 39.0916 28.962 39.0915ZM29.1868 29.8732C29.0956 29.8732 29.0053 29.8553 28.9211 29.8205C28.8368 29.7856 28.7603 29.7344 28.6959 29.6699L28.4711 29.4451C28.4064 29.3807 28.355 29.3042 28.3198 29.2199C28.2847 29.1356 28.2666 29.0452 28.2664 28.9539C28.2663 28.8625 28.2842 28.7721 28.3191 28.6877C28.354 28.6033 28.4052 28.5266 28.4698 28.462C28.5343 28.3975 28.611 28.3463 28.6954 28.3114C28.7798 28.2765 28.8703 28.2586 28.9616 28.2587C29.0529 28.2588 29.1433 28.277 29.2276 28.3121C29.3119 28.3472 29.3885 28.3986 29.4529 28.4634L29.6776 28.6881C29.7747 28.7852 29.8408 28.9089 29.8675 29.0436C29.8943 29.1782 29.8806 29.3178 29.828 29.4446C29.7755 29.5714 29.6865 29.6799 29.5724 29.7561C29.4583 29.8324 29.3241 29.8731 29.1868 29.8732Z" fill="#365E7D"/>
<path d="M35.576 34.37H33.6839C33.5928 34.37 33.5025 34.352 33.4183 34.3172C33.334 34.2823 33.2575 34.2312 33.193 34.1667C33.1286 34.1022 33.0774 34.0257 33.0426 33.9415C33.0077 33.8572 32.9897 33.767 32.9897 33.6758V30.0121C32.9897 29.9209 33.0077 29.8306 33.0426 29.7464C33.0774 29.6622 33.1286 29.5856 33.193 29.5212C33.2575 29.4567 33.334 29.4056 33.4183 29.3707C33.5025 29.3358 33.5928 29.3179 33.6839 29.3179C33.7751 29.3179 33.8654 29.3358 33.9496 29.3707C34.0338 29.4056 34.1104 29.4567 34.1748 29.5212C34.2393 29.5856 34.2904 29.6622 34.3253 29.7464C34.3602 29.8306 34.3781 29.9209 34.3781 30.0121V32.9816H35.576C35.9594 32.9816 36.2702 33.2923 36.2702 33.6758C36.2702 34.0593 35.9595 34.37 35.576 34.37Z" fill="#2B4D66"/>
<path d="M39.9762 9.12777H33.3545V3.64232C33.3545 1.63511 34.9816 0.00805664 36.9888 0.00805664C38.996 0.00805664 40.623 1.6352 40.623 3.64232V8.48083C40.623 8.56578 40.6063 8.64991 40.5738 8.72841C40.5413 8.8069 40.4937 8.87823 40.4336 8.9383C40.3736 8.99838 40.3022 9.04604 40.2237 9.07854C40.1453 9.11105 40.0611 9.12778 39.9762 9.12777Z" fill="#EAB14D"/>
<path d="M38.1727 0.206397C37.7918 0.0749762 37.3917 0.00794468 36.9888 0.00805678C34.9816 0.00805678 33.3545 1.6352 33.3545 3.64232V9.12777H35.7224V3.64232C35.7223 2.04985 36.747 0.697578 38.1727 0.206397Z" fill="#E49542"/>
</g>
<defs>
<clipPath id="clip0_43_7953">
<rect width="46" height="46" fill="white"/>
</clipPath>
</defs>
</svg>
