<svg width="46" height="46" viewBox="0 0 46 46" fill="none" xmlns="http://www.w3.org/2000/svg">
<g clip-path="url(#clip0_43_7969)">
<path d="M3.08335 33.2537C1.12493 29.9633 0 26.1189 0 22.0117C0 12.7319 5.74245 4.79337 13.8677 1.55567C16.3867 0.551937 27.9127 0.608808 30.5339 1.71047C38.4586 5.04116 44.0234 12.8765 44.0234 22.0117C44.0234 26.914 42.4208 31.442 39.7109 35.1004C39.4569 35.4433 3.39933 33.7846 3.08335 33.2537Z" fill="#465A61"/>
<path d="M36.5054 0.898438V19.9734H12.0082C11.512 19.9734 11.1098 20.3757 11.1098 20.8719V40.0404C10.7496 39.7876 10.3971 39.5241 10.0527 39.2502C9.94289 39.163 8.10432 39.0747 7.99624 38.9854C6.04235 37.3704 4.38058 35.4317 3.0835 33.2538V0.898438C3.0835 0.402231 3.48573 0 3.98193 0H35.6069C36.1031 0 36.5054 0.402231 36.5054 0.898438Z" fill="#B6C4CF"/>
<path d="M39.7109 6.06714V35.1005C35.7009 40.5141 29.2662 44.0235 22.0117 44.0235C16.6866 44.0235 11.803 42.1325 7.99609 38.9854V6.06714C7.99609 5.57093 8.39832 5.1687 8.89453 5.1687H38.8125C39.3087 5.1687 39.7109 5.57093 39.7109 6.06714Z" fill="#D9E7EC"/>
<path d="M21.9185 12.5054H12.0356C11.5394 12.5054 11.1372 12.1031 11.1372 11.6069C11.1372 11.1107 11.5394 10.7085 12.0356 10.7085H21.9185C22.4147 10.7085 22.8169 11.1107 22.8169 11.6069C22.8169 12.1031 22.4147 12.5054 21.9185 12.5054Z" fill="#8D9CA8"/>
<path d="M32.7661 16.0991H12.0356C11.5394 16.0991 11.1372 15.6969 11.1372 15.2007C11.1372 14.7045 11.5394 14.3022 12.0356 14.3022H32.7661C33.2623 14.3022 33.6645 14.7045 33.6645 15.2007C33.6645 15.6969 33.2623 16.0991 32.7661 16.0991ZM33.6645 18.7944C33.6645 18.2982 33.2623 17.896 32.7661 17.896H12.0356C11.5394 17.896 11.1372 18.2982 11.1372 18.7944C11.1372 19.2906 11.5394 19.6929 12.0356 19.6929H32.7661C33.2623 19.6929 33.6645 19.2906 33.6645 18.7944ZM29.6121 22.3882C29.6121 21.892 29.2099 21.4897 28.7137 21.4897H12.0356C11.5394 21.4897 11.1372 21.892 11.1372 22.3882C11.1372 22.8844 11.5394 23.2866 12.0356 23.2866H28.7137C29.2099 23.2866 29.6121 22.8844 29.6121 22.3882Z" fill="#B6C4CF"/>
<path d="M19.2201 43.7462L18.9692 42.9547L21.2003 38.2137L22.429 38.1746L25.4467 41.1922L25.4075 42.4209L20.6666 44.6519L19.9481 44.4741L19.2201 43.7462Z" fill="#FFC143"/>
<path d="M19.4764 44.0023L18.8534 43.3793L18.6025 42.5878L20.8336 37.8468L22.0623 37.8076L23.4051 39.1504L22.3978 39.411L19.4764 44.0023Z" fill="#FFB509"/>
<path d="M18.6024 42.5879L20.6665 44.6521L17.8966 45.9556C17.5157 46.1348 17.1196 45.7387 17.2988 45.3579L18.6024 42.5879Z" fill="#FF4343"/>
<path d="M44.0499 20.4047L42.144 22.3106C41.7932 22.6614 41.2243 22.6614 40.8734 22.3106L39.2568 20.6939C38.9059 20.3431 38.9059 19.7742 39.2568 19.4234L41.1626 17.5175C41.5135 17.1667 42.0824 17.1667 42.4332 17.5175L44.0499 19.1342C44.4007 19.485 44.4007 20.0539 44.0499 20.4047Z" fill="#FF7A7A"/>
<path d="M45.7369 22.0917L43.8311 23.9975C43.4803 24.3484 42.9114 24.3484 42.5605 23.9975L40.8212 22.2582C40.4704 21.9073 40.4704 21.3384 40.8212 20.9876L42.7271 19.0817C43.0779 18.7309 43.6468 18.7309 43.9977 19.0817L45.7369 20.821C46.0878 21.1719 46.0878 21.7408 45.7369 22.0917Z" fill="#FF9A9A"/>
<path d="M25.4074 42.421L22.3553 39.3689C22.3217 39.3352 22.3027 39.2895 22.3027 39.2418C22.3027 39.1942 22.3217 39.1485 22.3553 39.1148L40.5247 20.9454C40.5584 20.9117 40.6041 20.8928 40.6518 20.8928C40.6994 20.8928 40.7451 20.9117 40.7788 20.9454L43.8309 23.9975L25.4074 42.421Z" fill="#FF5757"/>
<path d="M22.3978 39.4112L20.8336 37.847L39.2571 19.4236L40.8213 20.9878L22.3978 39.4112ZM40.5972 25.4923L26.9025 39.1871C26.5517 39.5379 25.9828 39.5379 25.6319 39.1871C25.2811 38.8362 25.2811 38.2673 25.6319 37.9165L39.3266 24.2218C39.6775 23.8709 40.2464 23.8709 40.5972 24.2218C40.948 24.5726 40.948 25.1415 40.5972 25.4923ZM15.7637 39.829C15.7637 40.35 15.3413 40.7723 14.8203 40.7723C14.2993 40.7723 13.877 40.35 13.877 39.829C13.877 39.308 14.2993 38.8856 14.8203 38.8856C15.3413 38.8856 15.7637 39.308 15.7637 39.829ZM14.8202 37.4965C15.3164 37.4965 15.7187 37.0942 15.7187 36.598V33.208C15.7187 32.7118 15.3164 32.3096 14.8202 32.3096C14.324 32.3096 13.9218 32.7118 13.9218 33.208V36.598C13.9218 37.0942 14.3241 37.4965 14.8202 37.4965Z" fill="#FF4343"/>
<path d="M17.8226 32.8162C17.044 33.6362 15.9497 34.1065 14.82 34.1065C14.3238 34.1065 13.9216 33.7043 13.9216 33.2081C13.9216 32.7119 14.3238 32.3096 14.82 32.3096C15.4686 32.3096 16.0722 32.0502 16.5195 31.579C16.9666 31.1082 17.1941 30.4906 17.1604 29.8402C17.0971 28.6215 16.0906 27.6476 14.8689 27.623C13.6794 27.5968 12.6629 28.4654 12.4992 29.638C12.4841 29.7467 12.4766 29.8563 12.4766 29.966C12.4766 30.4623 12.0743 30.8645 11.5781 30.8645C11.0819 30.8645 10.6797 30.4623 10.6797 29.966C10.6797 29.7733 10.6931 29.5794 10.7196 29.3897C11.009 27.3161 12.8069 25.7853 14.9051 25.8265C17.0642 25.87 18.8431 27.5921 18.9548 29.747C19.0144 30.8945 18.6123 31.9845 17.8226 32.8162Z" fill="#FF5757"/>
</g>
<defs>
<clipPath id="clip0_43_7969">
<rect width="46" height="46" fill="white"/>
</clipPath>
</defs>
</svg>
